<mxfile host="app.diagrams.net" modified="2024-05-08T10:55:31.919Z" agent="Mozilla/5.0 (Windows NT 10.0; Win64; x64) AppleWebKit/537.36 (KHTML, like Gecko) Chrome/124.0.0.0 Safari/537.36" etag="qecaLFTMlVFu8BWlW6PP" version="24.3.1" type="device">
  <diagram id="C5RBs43oDa-KdzZeNtuy" name="Page-1">
    <mxGraphModel dx="1762" dy="777" grid="1" gridSize="10" guides="1" tooltips="1" connect="1" arrows="1" fold="1" page="1" pageScale="1" pageWidth="827" pageHeight="1169" background="none" math="0" shadow="0">
      <root>
        <mxCell id="WIyWlLk6GJQsqaUBKTNV-0" />
        <mxCell id="WIyWlLk6GJQsqaUBKTNV-1" parent="WIyWlLk6GJQsqaUBKTNV-0" />
        <mxCell id="PsZ08qjPK9DX-5330K1q-2" style="edgeStyle=orthogonalEdgeStyle;rounded=0;orthogonalLoop=1;jettySize=auto;html=1;exitX=0.5;exitY=1;exitDx=0;exitDy=0;entryX=0.5;entryY=0;entryDx=0;entryDy=0;" parent="WIyWlLk6GJQsqaUBKTNV-1" source="PsZ08qjPK9DX-5330K1q-0" target="PsZ08qjPK9DX-5330K1q-3" edge="1">
          <mxGeometry relative="1" as="geometry">
            <mxPoint x="734" y="100" as="targetPoint" />
            <Array as="points">
              <mxPoint x="734" y="60" />
              <mxPoint x="734" y="60" />
            </Array>
          </mxGeometry>
        </mxCell>
        <mxCell id="PsZ08qjPK9DX-5330K1q-0" value="start" style="ellipse;whiteSpace=wrap;html=1;" parent="WIyWlLk6GJQsqaUBKTNV-1" vertex="1">
          <mxGeometry x="696" y="20" width="76" height="20" as="geometry" />
        </mxCell>
        <mxCell id="PsZ08qjPK9DX-5330K1q-8" value="" style="edgeStyle=orthogonalEdgeStyle;rounded=0;orthogonalLoop=1;jettySize=auto;html=1;" parent="WIyWlLk6GJQsqaUBKTNV-1" source="PsZ08qjPK9DX-5330K1q-3" target="PsZ08qjPK9DX-5330K1q-7" edge="1">
          <mxGeometry relative="1" as="geometry" />
        </mxCell>
        <mxCell id="PsZ08qjPK9DX-5330K1q-3" value="calls the database for any stored preferences" style="rounded=0;whiteSpace=wrap;html=1;" parent="WIyWlLk6GJQsqaUBKTNV-1" vertex="1">
          <mxGeometry x="674" y="70" width="120" height="60" as="geometry" />
        </mxCell>
        <mxCell id="PsZ08qjPK9DX-5330K1q-10" value="" style="edgeStyle=orthogonalEdgeStyle;rounded=0;orthogonalLoop=1;jettySize=auto;html=1;" parent="WIyWlLk6GJQsqaUBKTNV-1" source="PsZ08qjPK9DX-5330K1q-7" target="PsZ08qjPK9DX-5330K1q-9" edge="1">
          <mxGeometry relative="1" as="geometry" />
        </mxCell>
        <mxCell id="PsZ08qjPK9DX-5330K1q-11" value="yes" style="edgeLabel;html=1;align=center;verticalAlign=middle;resizable=0;points=[];" parent="PsZ08qjPK9DX-5330K1q-10" vertex="1" connectable="0">
          <mxGeometry x="-0.2326" y="3" relative="1" as="geometry">
            <mxPoint as="offset" />
          </mxGeometry>
        </mxCell>
        <mxCell id="M4zPM8-xW-O6OLwoxhJK-4" style="edgeStyle=orthogonalEdgeStyle;rounded=0;orthogonalLoop=1;jettySize=auto;html=1;entryX=1;entryY=0.5;entryDx=0;entryDy=0;" edge="1" parent="WIyWlLk6GJQsqaUBKTNV-1" source="PsZ08qjPK9DX-5330K1q-7" target="M4zPM8-xW-O6OLwoxhJK-0">
          <mxGeometry relative="1" as="geometry">
            <Array as="points">
              <mxPoint x="734" y="380" />
            </Array>
          </mxGeometry>
        </mxCell>
        <mxCell id="M4zPM8-xW-O6OLwoxhJK-5" value="no" style="edgeLabel;html=1;align=center;verticalAlign=middle;resizable=0;points=[];" vertex="1" connectable="0" parent="M4zPM8-xW-O6OLwoxhJK-4">
          <mxGeometry x="-0.5096" y="-1" relative="1" as="geometry">
            <mxPoint as="offset" />
          </mxGeometry>
        </mxCell>
        <mxCell id="PsZ08qjPK9DX-5330K1q-7" value="first time?" style="rhombus;whiteSpace=wrap;html=1;" parent="WIyWlLk6GJQsqaUBKTNV-1" vertex="1">
          <mxGeometry x="701" y="160" width="66" height="70" as="geometry" />
        </mxCell>
        <mxCell id="PsZ08qjPK9DX-5330K1q-13" value="" style="edgeStyle=orthogonalEdgeStyle;rounded=0;orthogonalLoop=1;jettySize=auto;html=1;" parent="WIyWlLk6GJQsqaUBKTNV-1" source="PsZ08qjPK9DX-5330K1q-9" target="PsZ08qjPK9DX-5330K1q-12" edge="1">
          <mxGeometry relative="1" as="geometry" />
        </mxCell>
        <mxCell id="PsZ08qjPK9DX-5330K1q-9" value="choose mode" style="shape=parallelogram;perimeter=parallelogramPerimeter;whiteSpace=wrap;html=1;fixedSize=1;" parent="WIyWlLk6GJQsqaUBKTNV-1" vertex="1">
          <mxGeometry x="525" y="175" width="110" height="40" as="geometry" />
        </mxCell>
        <mxCell id="PsZ08qjPK9DX-5330K1q-15" value="" style="edgeStyle=orthogonalEdgeStyle;rounded=0;orthogonalLoop=1;jettySize=auto;html=1;" parent="WIyWlLk6GJQsqaUBKTNV-1" source="PsZ08qjPK9DX-5330K1q-12" target="PsZ08qjPK9DX-5330K1q-14" edge="1">
          <mxGeometry relative="1" as="geometry" />
        </mxCell>
        <mxCell id="PsZ08qjPK9DX-5330K1q-16" value="no" style="edgeLabel;html=1;align=center;verticalAlign=middle;resizable=0;points=[];" parent="PsZ08qjPK9DX-5330K1q-15" vertex="1" connectable="0">
          <mxGeometry x="-0.2124" y="1" relative="1" as="geometry">
            <mxPoint as="offset" />
          </mxGeometry>
        </mxCell>
        <mxCell id="M4zPM8-xW-O6OLwoxhJK-1" value="" style="edgeStyle=orthogonalEdgeStyle;rounded=0;orthogonalLoop=1;jettySize=auto;html=1;" edge="1" parent="WIyWlLk6GJQsqaUBKTNV-1" source="PsZ08qjPK9DX-5330K1q-12" target="M4zPM8-xW-O6OLwoxhJK-0">
          <mxGeometry relative="1" as="geometry" />
        </mxCell>
        <mxCell id="M4zPM8-xW-O6OLwoxhJK-2" value="yes" style="edgeLabel;html=1;align=center;verticalAlign=middle;resizable=0;points=[];" vertex="1" connectable="0" parent="M4zPM8-xW-O6OLwoxhJK-1">
          <mxGeometry x="-0.3546" relative="1" as="geometry">
            <mxPoint as="offset" />
          </mxGeometry>
        </mxCell>
        <mxCell id="PsZ08qjPK9DX-5330K1q-12" value="improve?" style="rhombus;whiteSpace=wrap;html=1;" parent="WIyWlLk6GJQsqaUBKTNV-1" vertex="1">
          <mxGeometry x="550" y="250" width="60" height="70" as="geometry" />
        </mxCell>
        <mxCell id="M4zPM8-xW-O6OLwoxhJK-8" value="" style="edgeStyle=orthogonalEdgeStyle;rounded=0;orthogonalLoop=1;jettySize=auto;html=1;" edge="1" parent="WIyWlLk6GJQsqaUBKTNV-1" source="PsZ08qjPK9DX-5330K1q-14" target="PsZ08qjPK9DX-5330K1q-26">
          <mxGeometry relative="1" as="geometry" />
        </mxCell>
        <mxCell id="PsZ08qjPK9DX-5330K1q-14" value="choose desired&amp;nbsp;&lt;div&gt;level&lt;/div&gt;" style="shape=parallelogram;perimeter=parallelogramPerimeter;whiteSpace=wrap;html=1;fixedSize=1;" parent="WIyWlLk6GJQsqaUBKTNV-1" vertex="1">
          <mxGeometry x="390" y="255" width="120" height="60" as="geometry" />
        </mxCell>
        <mxCell id="PsZ08qjPK9DX-5330K1q-30" value="" style="edgeStyle=orthogonalEdgeStyle;rounded=0;orthogonalLoop=1;jettySize=auto;html=1;" parent="WIyWlLk6GJQsqaUBKTNV-1" source="PsZ08qjPK9DX-5330K1q-17" target="PsZ08qjPK9DX-5330K1q-29" edge="1">
          <mxGeometry relative="1" as="geometry" />
        </mxCell>
        <mxCell id="PsZ08qjPK9DX-5330K1q-17" value="choose game" style="shape=parallelogram;perimeter=parallelogramPerimeter;whiteSpace=wrap;html=1;fixedSize=1;" parent="WIyWlLk6GJQsqaUBKTNV-1" vertex="1">
          <mxGeometry x="530.11" y="430" width="100" height="40" as="geometry" />
        </mxCell>
        <mxCell id="M4zPM8-xW-O6OLwoxhJK-9" style="edgeStyle=orthogonalEdgeStyle;rounded=0;orthogonalLoop=1;jettySize=auto;html=1;entryX=0;entryY=0.5;entryDx=0;entryDy=0;" edge="1" parent="WIyWlLk6GJQsqaUBKTNV-1" source="PsZ08qjPK9DX-5330K1q-26" target="M4zPM8-xW-O6OLwoxhJK-0">
          <mxGeometry relative="1" as="geometry" />
        </mxCell>
        <mxCell id="PsZ08qjPK9DX-5330K1q-26" value="store it" style="rounded=0;whiteSpace=wrap;html=1;" parent="WIyWlLk6GJQsqaUBKTNV-1" vertex="1">
          <mxGeometry x="415" y="365" width="70" height="30" as="geometry" />
        </mxCell>
        <mxCell id="PsZ08qjPK9DX-5330K1q-32" value="" style="edgeStyle=orthogonalEdgeStyle;rounded=0;orthogonalLoop=1;jettySize=auto;html=1;" parent="WIyWlLk6GJQsqaUBKTNV-1" source="PsZ08qjPK9DX-5330K1q-29" target="PsZ08qjPK9DX-5330K1q-31" edge="1">
          <mxGeometry relative="1" as="geometry" />
        </mxCell>
        <mxCell id="PsZ08qjPK9DX-5330K1q-29" value="play" style="whiteSpace=wrap;html=1;" parent="WIyWlLk6GJQsqaUBKTNV-1" vertex="1">
          <mxGeometry x="540.11" y="490" width="80" height="30" as="geometry" />
        </mxCell>
        <mxCell id="M4zPM8-xW-O6OLwoxhJK-7" value="" style="edgeStyle=orthogonalEdgeStyle;rounded=0;orthogonalLoop=1;jettySize=auto;html=1;" edge="1" parent="WIyWlLk6GJQsqaUBKTNV-1" source="PsZ08qjPK9DX-5330K1q-31" target="PsZ08qjPK9DX-5330K1q-33">
          <mxGeometry relative="1" as="geometry" />
        </mxCell>
        <mxCell id="PsZ08qjPK9DX-5330K1q-31" value="finish playing" style="whiteSpace=wrap;html=1;" parent="WIyWlLk6GJQsqaUBKTNV-1" vertex="1">
          <mxGeometry x="535.11" y="550" width="90" height="35" as="geometry" />
        </mxCell>
        <mxCell id="PsZ08qjPK9DX-5330K1q-39" value="" style="edgeStyle=orthogonalEdgeStyle;rounded=0;orthogonalLoop=1;jettySize=auto;html=1;" parent="WIyWlLk6GJQsqaUBKTNV-1" source="PsZ08qjPK9DX-5330K1q-33" target="PsZ08qjPK9DX-5330K1q-35" edge="1">
          <mxGeometry relative="1" as="geometry" />
        </mxCell>
        <mxCell id="PsZ08qjPK9DX-5330K1q-40" value="no" style="edgeLabel;html=1;align=center;verticalAlign=middle;resizable=0;points=[];" parent="PsZ08qjPK9DX-5330K1q-39" vertex="1" connectable="0">
          <mxGeometry x="-0.2273" y="1" relative="1" as="geometry">
            <mxPoint as="offset" />
          </mxGeometry>
        </mxCell>
        <mxCell id="PsZ08qjPK9DX-5330K1q-42" value="" style="edgeStyle=orthogonalEdgeStyle;rounded=0;orthogonalLoop=1;jettySize=auto;html=1;" parent="WIyWlLk6GJQsqaUBKTNV-1" source="PsZ08qjPK9DX-5330K1q-33" target="PsZ08qjPK9DX-5330K1q-41" edge="1">
          <mxGeometry relative="1" as="geometry" />
        </mxCell>
        <mxCell id="PsZ08qjPK9DX-5330K1q-43" value="yes" style="edgeLabel;html=1;align=center;verticalAlign=middle;resizable=0;points=[];" parent="PsZ08qjPK9DX-5330K1q-42" vertex="1" connectable="0">
          <mxGeometry x="-0.149" relative="1" as="geometry">
            <mxPoint y="-1" as="offset" />
          </mxGeometry>
        </mxCell>
        <mxCell id="PsZ08qjPK9DX-5330K1q-33" value="improve?" style="rhombus;whiteSpace=wrap;html=1;" parent="WIyWlLk6GJQsqaUBKTNV-1" vertex="1">
          <mxGeometry x="430" y="540" width="80" height="52.5" as="geometry" />
        </mxCell>
        <mxCell id="PsZ08qjPK9DX-5330K1q-35" value="end" style="ellipse;whiteSpace=wrap;html=1;" parent="WIyWlLk6GJQsqaUBKTNV-1" vertex="1">
          <mxGeometry x="435" y="648.75" width="70" height="30" as="geometry" />
        </mxCell>
        <mxCell id="M4zPM8-xW-O6OLwoxhJK-12" value="" style="edgeStyle=orthogonalEdgeStyle;rounded=0;orthogonalLoop=1;jettySize=auto;html=1;" edge="1" parent="WIyWlLk6GJQsqaUBKTNV-1" source="PsZ08qjPK9DX-5330K1q-41" target="PsZ08qjPK9DX-5330K1q-45">
          <mxGeometry relative="1" as="geometry" />
        </mxCell>
        <mxCell id="PsZ08qjPK9DX-5330K1q-41" value="extract&lt;div&gt;information&lt;/div&gt;" style="whiteSpace=wrap;html=1;" parent="WIyWlLk6GJQsqaUBKTNV-1" vertex="1">
          <mxGeometry x="260" y="545.75" width="90" height="38" as="geometry" />
        </mxCell>
        <mxCell id="M4zPM8-xW-O6OLwoxhJK-11" value="" style="edgeStyle=orthogonalEdgeStyle;rounded=0;orthogonalLoop=1;jettySize=auto;html=1;" edge="1" parent="WIyWlLk6GJQsqaUBKTNV-1" source="PsZ08qjPK9DX-5330K1q-44" target="PsZ08qjPK9DX-5330K1q-35">
          <mxGeometry relative="1" as="geometry" />
        </mxCell>
        <mxCell id="PsZ08qjPK9DX-5330K1q-44" value="recommendation&lt;div&gt;system&lt;/div&gt;" style="rounded=0;whiteSpace=wrap;html=1;" parent="WIyWlLk6GJQsqaUBKTNV-1" vertex="1">
          <mxGeometry x="210" y="633.75" width="120" height="60" as="geometry" />
        </mxCell>
        <mxCell id="M4zPM8-xW-O6OLwoxhJK-18" style="edgeStyle=orthogonalEdgeStyle;rounded=0;orthogonalLoop=1;jettySize=auto;html=1;entryX=0;entryY=0.5;entryDx=0;entryDy=0;" edge="1" parent="WIyWlLk6GJQsqaUBKTNV-1" source="PsZ08qjPK9DX-5330K1q-45" target="PsZ08qjPK9DX-5330K1q-44">
          <mxGeometry relative="1" as="geometry">
            <Array as="points">
              <mxPoint x="100" y="664" />
            </Array>
          </mxGeometry>
        </mxCell>
        <mxCell id="PsZ08qjPK9DX-5330K1q-45" value="adaptive&lt;div&gt;algorithm&lt;/div&gt;" style="rounded=0;whiteSpace=wrap;html=1;" parent="WIyWlLk6GJQsqaUBKTNV-1" vertex="1">
          <mxGeometry x="40" y="534.75" width="120" height="60" as="geometry" />
        </mxCell>
        <mxCell id="M4zPM8-xW-O6OLwoxhJK-3" value="" style="edgeStyle=orthogonalEdgeStyle;rounded=0;orthogonalLoop=1;jettySize=auto;html=1;" edge="1" parent="WIyWlLk6GJQsqaUBKTNV-1" source="M4zPM8-xW-O6OLwoxhJK-0" target="PsZ08qjPK9DX-5330K1q-17">
          <mxGeometry relative="1" as="geometry" />
        </mxCell>
        <mxCell id="M4zPM8-xW-O6OLwoxhJK-0" value="" style="ellipse;whiteSpace=wrap;html=1;aspect=fixed;" vertex="1" parent="WIyWlLk6GJQsqaUBKTNV-1">
          <mxGeometry x="570" y="370" width="20" height="20" as="geometry" />
        </mxCell>
      </root>
    </mxGraphModel>
  </diagram>
</mxfile>
